<mxfile host="app.diagrams.net" agent="Mozilla/5.0 (Windows NT 10.0; Win64; x64) AppleWebKit/537.36 (KHTML, like Gecko) Chrome/131.0.0.0 Safari/537.36 Edg/131.0.0.0" version="24.8.4">
  <diagram name="第 1 页" id="ohyLc6CuUKODZDAU-Xe0">
    <mxGraphModel dx="441" dy="259" grid="1" gridSize="10" guides="1" tooltips="1" connect="1" arrows="1" fold="1" page="1" pageScale="1" pageWidth="827" pageHeight="1169" math="0" shadow="0">
      <root>
        <mxCell id="0" />
        <mxCell id="1" parent="0" />
        <mxCell id="hIzxaTq8T5kl8P_OHBH_-1" value="&lt;span style=&quot;color: rgb(44, 44, 54); font-family: ui-monospace, SFMono-Regular, &amp;quot;SF Mono&amp;quot;, Menlo, Consolas, &amp;quot;Liberation Mono&amp;quot;, monospace; font-size: 13.6px; white-space-collapse: break-spaces;&quot;&gt;AddColumn&lt;/span&gt;" style="rounded=0;whiteSpace=wrap;html=1;fillColor=#f8cecc;strokeColor=#b85450;align=center;" parent="1" vertex="1">
          <mxGeometry x="160" y="50" width="120" height="30" as="geometry" />
        </mxCell>
        <mxCell id="hIzxaTq8T5kl8P_OHBH_-2" value="&lt;span style=&quot;color: rgb(44, 44, 54); font-family: -apple-system, blinkmacsystemfont, &amp;quot;Helvetica Neue&amp;quot;, helvetica, &amp;quot;segoe ui&amp;quot;, arial, roboto, &amp;quot;PingFang SC&amp;quot;, miui, &amp;quot;Hiragino Sans GB&amp;quot;, &amp;quot;Microsoft Yahei&amp;quot;, sans-serif, &amp;quot;Source Han Serif&amp;quot;; font-size: 16px; font-style: normal; font-variant-ligatures: normal; font-variant-caps: normal; font-weight: 400; letter-spacing: normal; orphans: 2; text-indent: 0px; text-transform: none; widows: 2; word-spacing: 0px; -webkit-text-stroke-width: 0px; white-space: normal; background-color: rgb(255, 255, 255); text-decoration-thickness: initial; text-decoration-style: initial; text-decoration-color: initial; float: none; display: inline !important;&quot;&gt;向表格添加新列&lt;/span&gt;" style="text;whiteSpace=wrap;html=1;align=center;" parent="1" vertex="1">
          <mxGeometry x="145" y="80" width="150" height="40" as="geometry" />
        </mxCell>
        <mxCell id="hIzxaTq8T5kl8P_OHBH_-3" value="&lt;span style=&quot;color: rgb(44, 44, 54); font-family: ui-monospace, SFMono-Regular, &amp;quot;SF Mono&amp;quot;, Menlo, Consolas, &amp;quot;Liberation Mono&amp;quot;, monospace; font-size: 13.6px; white-space-collapse: break-spaces;&quot;&gt;SelectColumn&lt;/span&gt;" style="rounded=0;whiteSpace=wrap;html=1;fillColor=#f8cecc;strokeColor=#b85450;align=center;" parent="1" vertex="1">
          <mxGeometry x="330" y="50" width="120" height="30" as="geometry" />
        </mxCell>
        <mxCell id="hIzxaTq8T5kl8P_OHBH_-4" value="&lt;span style=&quot;color: rgb(44, 44, 54); font-family: -apple-system, blinkmacsystemfont, &amp;quot;Helvetica Neue&amp;quot;, helvetica, &amp;quot;segoe ui&amp;quot;, arial, roboto, &amp;quot;PingFang SC&amp;quot;, miui, &amp;quot;Hiragino Sans GB&amp;quot;, &amp;quot;Microsoft Yahei&amp;quot;, sans-serif, &amp;quot;Source Han Serif&amp;quot;; font-size: 16px; background-color: rgb(255, 255, 255);&quot;&gt;选择指定列&lt;/span&gt;" style="text;whiteSpace=wrap;html=1;align=center;" parent="1" vertex="1">
          <mxGeometry x="315" y="80" width="150" height="40" as="geometry" />
        </mxCell>
        <mxCell id="hIzxaTq8T5kl8P_OHBH_-5" value="&lt;span style=&quot;color: rgb(44, 44, 54); font-family: ui-monospace, SFMono-Regular, &amp;quot;SF Mono&amp;quot;, Menlo, Consolas, &amp;quot;Liberation Mono&amp;quot;, monospace; font-size: 13.6px; white-space-collapse: break-spaces;&quot;&gt;SelectRow&lt;/span&gt;" style="rounded=0;whiteSpace=wrap;html=1;fillColor=#f8cecc;strokeColor=#b85450;align=center;" parent="1" vertex="1">
          <mxGeometry x="160" y="140" width="120" height="30" as="geometry" />
        </mxCell>
        <mxCell id="hIzxaTq8T5kl8P_OHBH_-6" value="&lt;span style=&quot;color: rgb(44, 44, 54); font-family: -apple-system, blinkmacsystemfont, &amp;quot;Helvetica Neue&amp;quot;, helvetica, &amp;quot;segoe ui&amp;quot;, arial, roboto, &amp;quot;PingFang SC&amp;quot;, miui, &amp;quot;Hiragino Sans GB&amp;quot;, &amp;quot;Microsoft Yahei&amp;quot;, sans-serif, &amp;quot;Source Han Serif&amp;quot;; font-size: 16px; background-color: rgb(255, 255, 255);&quot;&gt;选择指定行&lt;/span&gt;" style="text;whiteSpace=wrap;html=1;align=center;" parent="1" vertex="1">
          <mxGeometry x="147" y="170" width="150" height="40" as="geometry" />
        </mxCell>
        <mxCell id="hIzxaTq8T5kl8P_OHBH_-7" value="&lt;span style=&quot;color: rgb(44, 44, 54); font-family: ui-monospace, SFMono-Regular, &amp;quot;SF Mono&amp;quot;, Menlo, Consolas, &amp;quot;Liberation Mono&amp;quot;, monospace; font-size: 13.6px; white-space-collapse: break-spaces;&quot;&gt;GroupBy&lt;/span&gt;" style="rounded=0;whiteSpace=wrap;html=1;fillColor=#f8cecc;strokeColor=#b85450;align=center;" parent="1" vertex="1">
          <mxGeometry x="332" y="140" width="120" height="30" as="geometry" />
        </mxCell>
        <mxCell id="hIzxaTq8T5kl8P_OHBH_-8" value="&lt;span style=&quot;color: rgb(44, 44, 54); font-family: -apple-system, blinkmacsystemfont, &amp;quot;Helvetica Neue&amp;quot;, helvetica, &amp;quot;segoe ui&amp;quot;, arial, roboto, &amp;quot;PingFang SC&amp;quot;, miui, &amp;quot;Hiragino Sans GB&amp;quot;, &amp;quot;Microsoft Yahei&amp;quot;, sans-serif, &amp;quot;Source Han Serif&amp;quot;; font-size: 16px; background-color: rgb(255, 255, 255);&quot;&gt;按列分组统计&lt;/span&gt;" style="text;whiteSpace=wrap;html=1;align=center;" parent="1" vertex="1">
          <mxGeometry x="317" y="170" width="150" height="40" as="geometry" />
        </mxCell>
        <mxCell id="hIzxaTq8T5kl8P_OHBH_-9" value="&lt;span style=&quot;color: rgb(44, 44, 54); font-family: ui-monospace, SFMono-Regular, &amp;quot;SF Mono&amp;quot;, Menlo, Consolas, &amp;quot;Liberation Mono&amp;quot;, monospace; font-size: 13.6px; white-space-collapse: break-spaces;&quot;&gt;SortBy&lt;/span&gt;" style="rounded=0;whiteSpace=wrap;html=1;fillColor=#f8cecc;strokeColor=#b85450;align=center;" parent="1" vertex="1">
          <mxGeometry x="500" y="140" width="120" height="30" as="geometry" />
        </mxCell>
        <mxCell id="hIzxaTq8T5kl8P_OHBH_-10" value="&lt;span style=&quot;color: rgb(44, 44, 54); font-family: -apple-system, blinkmacsystemfont, &amp;quot;Helvetica Neue&amp;quot;, helvetica, &amp;quot;segoe ui&amp;quot;, arial, roboto, &amp;quot;PingFang SC&amp;quot;, miui, &amp;quot;Hiragino Sans GB&amp;quot;, &amp;quot;Microsoft Yahei&amp;quot;, sans-serif, &amp;quot;Source Han Serif&amp;quot;; font-size: 16px; background-color: rgb(255, 255, 255);&quot;&gt;按列排序&lt;/span&gt;" style="text;whiteSpace=wrap;html=1;align=center;" parent="1" vertex="1">
          <mxGeometry x="485" y="170" width="150" height="40" as="geometry" />
        </mxCell>
      </root>
    </mxGraphModel>
  </diagram>
</mxfile>
